<?xml version="1.0" encoding="utf-8"?>
<!-- Generator: Adobe Illustrator 23.0.2, SVG Export Plug-In . SVG Version: 6.00 Build 0)  -->
<svg version="1.1" id="Layer_1" xmlns="http://www.w3.org/2000/svg" xmlns:xlink="http://www.w3.org/1999/xlink" x="0px" y="0px"
	 viewBox="0 0 86.4 364.2" style="enable-background:new 0 0 86.4 364.2;" xml:space="preserve">
<style type="text/css">
	.st0{fill:none;stroke:#939598;stroke-miterlimit:10;}
</style>
<g id="panel">
	<path class="st0" d="M-0.3,364.5V-0.3h87v364.8H-0.3z M21.1,351.5c-2.3,0-4.2,1.9-4.2,4.2s1.9,4.2,4.2,4.2s4.2-1.9,4.2-4.2
		S23.4,351.5,21.1,351.5z M43.2,278.5c-9,0-16.3,7.5-16.3,16.6s7.3,16.6,16.3,16.6s16.3-7.5,16.3-16.6S52.2,278.5,43.2,278.5z
		 M43.2,231.7c-9.2,0-16.6,7.5-16.6,16.6c0,9.2,7.5,16.6,16.6,16.6c9.2,0,16.6-7.5,16.6-16.6C59.8,239.2,52.4,231.7,43.2,231.7z
		 M43.2,184.9c-9.2,0-16.6,7.5-16.6,16.6s7.5,16.6,16.6,16.6c9.2,0,16.6-7.5,16.6-16.6S52.4,184.9,43.2,184.9z M61.2,142.8
		c-4.6,0-8.4,3.7-8.4,8.4s3.7,8.4,8.4,8.4s8.4-3.7,8.4-8.4S65.8,142.8,61.2,142.8z M25.2,142.8c-4.6,0-8.4,3.7-8.4,8.4
		s3.7,8.4,8.4,8.4s8.4-3.7,8.4-8.4S29.8,142.8,25.2,142.8z M43.2,73.3c-5.2,0-9.4,4.2-9.4,9.4c0,5.2,4.2,9.4,9.4,9.4
		s9.4-4.2,9.4-9.4C52.6,77.5,48.4,73.3,43.2,73.3z M21.1,4.3c-2.3,0-4.2,1.9-4.2,4.2s1.9,4.2,4.2,4.2s4.2-1.9,4.2-4.2
		S23.4,4.3,21.1,4.3z"/>
	<path class="st0" d="M112,351.5c-2.3,0-4.2,1.9-4.2,4.2s1.9,4.2,4.2,4.2s4.2-1.9,4.2-4.2S114.3,351.5,112,351.5z"/>
</g>
<g id="etch">
	<g id="EDKWLM.tif">
		<g>
			<g>
				<path d="M50.3,341.8c-0.5,1.4-1.6,2-3,1.9c-0.5,0-1.1,0-1.7,0c0-2.1,0-4.2,0-6.3c1,0,2,0,3.1,0c0.3-2.4-0.1-4.6-2.2-6.1
					c-1.9-1.4-4-1.5-6-0.4c-2.5,1.4-3.1,3.7-2.8,6.4c1,0,2,0,3.1,0c0,2.1,0,4.2,0,6.3c-2.8,0.2-3.8,0.3-4.7-1.7c0-2.3,0-4.7,0-7
					c0.1-0.2,0.1-0.4,0.2-0.6c0.7-2.7,2.3-4.4,4.9-5.3c0.4-0.1,0.8-0.2,1.2-0.3c0.6,0,1.2,0,1.8,0c0.1,0,0.3,0.1,0.4,0.1
					c2.7,0.6,4.5,2.2,5.4,4.9c0.1,0.4,0.2,0.8,0.3,1.2C50.3,337.1,50.3,339.5,50.3,341.8z"/>
			</g>
		</g>
	</g>
	<g>
		<path d="M33.8,152.1H43l-2,1.5c-0.4,0.3-0.5,0.9-0.2,1.3c0.2,0.2,0.5,0.4,0.7,0.4s0.4-0.1,0.6-0.2l3.9-3h6.4v-1.9h-5.9l0,0
			l-4.5-3.4c-0.4-0.3-1-0.2-1.3,0.2s-0.2,1,0.2,1.3l2.5,1.9h-9.7v1.9H33.8z"/>
		<path d="M4.5,152.1c0.2,5.2,2.3,10.1,6,13.8c0.2,0.2,0.4,0.3,0.7,0.3s0.5-0.1,0.7-0.3c0.4-0.4,0.4-1,0-1.3
			c-3.3-3.3-5.3-7.7-5.5-12.4h3.1c0.2,3.9,1.8,7.5,4.6,10.3c0.2,0.2,0.4,0.3,0.7,0.3s0.5-0.1,0.7-0.3c0.4-0.4,0.4-1,0-1.3
			c-2.4-2.4-3.8-5.6-4-8.9h4.1c0.5,0,0.9-0.4,0.9-0.9s-0.4-0.9-0.9-0.9h-4.1c0.2-3.4,1.6-6.5,4-8.9c0.4-0.4,0.4-1,0-1.3
			c-0.4-0.4-1-0.4-1.3,0c-2.8,2.8-4.4,6.4-4.6,10.3H6.3c0.2-4.7,2.1-9.1,5.5-12.4c0.4-0.4,0.4-1,0-1.3c-0.4-0.4-1-0.4-1.3,0
			c-3.7,3.7-5.8,8.6-6,13.8H3.6c-0.5,0-0.9,0.4-0.9,0.9s0.4,0.9,0.9,0.9h0.9V152.1z"/>
		<path d="M82.8,150.2h-0.9c-0.2-5.2-2.3-10.1-6-13.8c-0.4-0.4-1-0.4-1.3,0c-0.4,0.4-0.4,1,0,1.3c3.3,3.3,5.3,7.7,5.5,12.4H77
			c-0.2-3.9-1.8-7.5-4.6-10.3c-0.4-0.4-1-0.4-1.3,0c-0.4,0.4-0.4,1,0,1.3c2.4,2.4,3.8,5.6,4,8.9H71c-0.5,0-0.9,0.4-0.9,0.9
			s0.4,0.9,0.9,0.9h4.1c-0.2,3.4-1.6,6.5-4,8.9c-0.4,0.4-0.4,1,0,1.3c0.2,0.2,0.4,0.3,0.7,0.3s0.5-0.1,0.7-0.3
			c2.8-2.8,4.4-6.4,4.6-10.3h3.1c-0.2,4.7-2.1,9.1-5.5,12.4c-0.4,0.4-0.4,1,0,1.3c0.2,0.2,0.4,0.3,0.7,0.3s0.5-0.1,0.7-0.3
			c3.7-3.7,5.8-8.6,6-13.8H83c0.5,0,0.9-0.4,0.9-0.9S83.3,150.2,82.8,150.2z"/>
		<path d="M85.4,248c-0.5-1.4-1.1-2.8-1.6-3.8c-0.5-0.9-1.2-2-2.4-2c-1.2,0-1.9,1.2-2.4,2c-0.6,1-1.1,2.4-1.6,3.8
			c-0.5,1.3-1,2.7-1.5,3.6c-0.4,0.8-0.7,1-0.7,1c-0.1,0-0.3-0.2-0.8-1c-0.5-0.9-1-2.3-1.5-3.6c-0.5-1.4-1.1-2.8-1.6-3.8
			c-0.5-0.9-1.2-2-2.4-2c-1.2,0-1.9,1.2-2.4,2c-0.6,1-1.1,2.4-1.6,3.8c-0.5,1.3-1,2.7-1.5,3.6c-0.4,0.8-0.7,1-0.7,1
			c-0.1,0-0.3-0.2-0.8-1c-0.2-0.5-0.8-0.6-1.3-0.4c-0.5,0.2-0.6,0.8-0.4,1.3c0.5,0.9,1.2,2,2.4,2s1.9-1.2,2.4-2
			c0.6-1,1.1-2.4,1.6-3.8c0.5-1.3,1-2.7,1.5-3.6c0.4-0.8,0.7-1,0.7-1c0.1,0,0.3,0.2,0.8,1c0.5,0.9,1,2.3,1.5,3.6
			c0.5,1.4,1.1,2.8,1.6,3.8c0.5,0.9,1.2,2,2.4,2c1.2,0,1.9-1.2,2.4-2c0.6-1,1.1-2.4,1.6-3.8c0.5-1.3,1-2.7,1.5-3.6
			c0.4-0.8,0.7-1,0.7-1c0.1,0,0.3,0.2,0.8,1c0.5,0.9,1,2.3,1.5,3.6c0.5,1.4,1.1,2.8,1.6,3.8c0.2,0.5,0.8,0.6,1.3,0.4
			c0.5-0.2,0.6-0.8,0.4-1.3C86.4,250.7,85.9,249.3,85.4,248z"/>
		<path d="M24,195.3c-1.2,0-1.9,1.2-2.4,2c-0.6,1-1.1,2.4-1.6,3.8c-0.5,1.3-1,2.7-1.5,3.6c-0.4,0.8-0.7,1-0.7,1
			c-0.1,0-0.3-0.2-0.8-1c-0.5-0.9-1-2.3-1.5-3.6c-0.5-1.4-1.1-2.8-1.6-3.8c-0.5-0.9-1.2-2-2.4-2s-1.9,1.2-2.4,2
			c-0.6,1-1.1,2.4-1.6,3.8c-0.5,1.3-1,2.7-1.5,3.6c-0.4,0.8-0.7,1-0.7,1c-0.1,0-0.3-0.2-0.8-1c-0.5-0.9-1-2.3-1.5-3.6
			c-0.5-1.4-1.1-2.8-1.6-3.8c-0.4-0.4-1-0.5-1.4-0.3c-0.5,0.2-0.6,0.8-0.4,1.3c0.5,0.9,1,2.3,1.5,3.6c0.5,1.4,1.1,2.8,1.6,3.8
			c0.5,0.9,1.2,2,2.4,2s1.9-1.2,2.4-2c0.6-1,1.1-2.4,1.6-3.8c0.5-1.3,1-2.7,1.5-3.6c0.4-0.8,0.7-1,0.7-1c0.1,0,0.3,0.2,0.8,1
			c0.5,0.9,1,2.3,1.5,3.6c0.5,1.4,1.1,2.8,1.6,3.8c0.5,0.9,1.2,2,2.4,2c1.2,0,1.9-1.2,2.4-2c0.6-1,1.1-2.4,1.6-3.8
			c0.5-1.3,1-2.7,1.5-3.6c0.4-0.8,0.7-1,0.7-1c0.1,0,0.3,0.2,0.8,1c0.2,0.5,0.8,0.6,1.3,0.4c0.5-0.2,0.6-0.8,0.4-1.3
			C25.9,196.5,25.1,195.3,24,195.3z"/>
		<path d="M87.2,113.1c-6.2,0-11.3-5-11.4-11.2c3.2-5.4,5-11.6,5.2-18.2h5.4c0.5,0,0.9-0.4,0.9-0.9s-0.4-0.9-0.9-0.9H81
			c-0.2-6.6-2-12.8-5.2-18.2c0.1-6.2,5.2-11.2,11.4-11.2c0.5,0,0.9-0.4,0.9-0.9s-0.4-0.9-0.9-0.9c-6.4,0-11.8,4.6-13,10.6
			c-6.7-9.5-17.6-15.9-30.1-16.2V30.8c4.3-0.5,7.6-4.1,7.6-8.5s-3.3-8-7.6-8.5V0c0-0.5-0.4-0.9-0.9-0.9S42.3-0.5,42.3,0v13.9
			c-4.3,0.5-7.6,4.1-7.6,8.5s3.3,8,7.6,8.5V45c-12.4,0.3-23.4,6.6-30.1,16.2c-1.3-6-6.6-10.6-13-10.6c-0.5,0-0.9,0.4-0.9,0.9
			s0.4,0.9,0.9,0.9c6.2,0,11.3,5,11.4,11.2c-3.2,5.4-5,11.6-5.2,18.2H0c-0.5,0-0.9,0.4-0.9,0.9s0.4,0.9,0.9,0.9h5.4
			c0.2,6.6,2,12.8,5.2,18.2C10.5,108,5.4,113-0.8,113c-0.5,0-0.9,0.4-0.9,0.9s0.4,0.9,0.9,0.9c6.4,0,11.8-4.6,13-10.6
			c6.8,9.8,18.2,16.2,31,16.2s24.2-6.4,31-16.2c1.3,6,6.6,10.6,13,10.6c0.5,0,0.9-0.4,0.9-0.9S87.7,113.1,87.2,113.1z M36.6,22.4
			c0-3.7,3-6.6,6.6-6.6s6.6,3,6.6,6.6s-3,6.6-6.6,6.6S36.6,26,36.6,22.4z M43.2,118.7c-19.8,0-35.9-16.1-35.9-35.9
			s16.1-35.9,35.9-35.9S79.1,63,79.1,82.8C79.1,102.5,63,118.7,43.2,118.7z"/>
		<path d="M44.1,322.1V314c0-0.5-0.4-0.9-0.9-0.9s-0.9,0.4-0.9,0.9v8.1c-7.7,0.5-13.7,6.9-13.7,14.6s6.1,14.1,13.7,14.6v12.1
			c0,0.5,0.4,0.9,0.9,0.9s0.9-0.4,0.9-0.9v-12.1c7.7-0.5,13.7-6.9,13.7-14.6S51.8,322.6,44.1,322.1z M43.2,349.6
			c-7.1,0-12.8-5.7-12.8-12.8S36.1,324,43.2,324S56,329.7,56,336.8S50.3,349.6,43.2,349.6z"/>
	</g>
</g>
</svg>
