<?xml version="1.0" encoding="utf-8"?>
<!-- Generator: Adobe Illustrator 23.0.2, SVG Export Plug-In . SVG Version: 6.00 Build 0)  -->
<svg version="1.1" id="Layer_1" xmlns="http://www.w3.org/2000/svg" xmlns:xlink="http://www.w3.org/1999/xlink" x="0px" y="0px"
	 viewBox="0 0 86.4 364.2" style="enable-background:new 0 0 86.4 364.2;" xml:space="preserve">
<style type="text/css">
	.st0{opacity:0.59;fill:#999998;}
</style>
<path class="st0" d="M-146.68,210.4h364.249V124H-146.68V210.4z M-73.675,167.2c0-5.368,4.352-9.72,9.72-9.72
	c5.368,0,9.72,4.352,9.72,9.72c0,5.368-4.352,9.72-9.72,9.72C-69.324,176.92-73.675,172.568-73.675,167.2z M4.445,176.554
	c4.772,0,8.64,3.871,8.64,8.646c0,4.775-3.868,8.646-8.64,8.646c-4.772,0-8.64-3.871-8.64-8.646
	C-4.195,180.425-0.327,176.554,4.445,176.554z M-142.713,189.336c0-2.504,2.031-4.535,4.535-4.535c2.504,0,4.535,2.031,4.535,4.535
	s-2.031,4.535-4.535,4.535C-140.682,193.871-142.713,191.839-142.713,189.336z M213.602,189.336c0,2.504-2.031,4.535-4.535,4.535
	c-2.504,0-4.535-2.031-4.535-4.535s2.031-4.535,4.535-4.535C211.571,184.8,213.602,186.832,213.602,189.336z M165.365,167.2
	c0,9.146-7.575,16.56-16.92,16.56c-9.345,0-16.92-7.414-16.92-16.56c0-9.146,7.575-16.56,16.92-16.56
	C157.789,150.64,165.365,158.054,165.365,167.2z M118.565,167.2c0,9.345-7.575,16.92-16.92,16.92c-9.345,0-16.92-7.575-16.92-16.92
	c0-9.345,7.575-16.92,16.92-16.92C110.989,150.28,118.565,157.855,118.565,167.2z M71.765,167.2c0,9.345-7.575,16.92-16.92,16.92
	c-9.345,0-16.92-7.575-16.92-16.92c0-9.345,7.575-16.92,16.92-16.92C64.189,150.28,71.765,157.855,71.765,167.2z M13.085,149.2
	c0,4.775-3.868,8.646-8.64,8.646c-4.772,0-8.64-3.871-8.64-8.646c0-4.775,3.868-8.646,8.64-8.646
	C9.216,140.554,13.085,144.425,13.085,149.2z"/>
</svg>
