<?xml version="1.0" encoding="utf-8"?>
<!-- Generator: Adobe Illustrator 23.0.2, SVG Export Plug-In . SVG Version: 6.00 Build 0)  -->
<svg version="1.1" id="recess" xmlns="http://www.w3.org/2000/svg" xmlns:xlink="http://www.w3.org/1999/xlink" x="0px" y="0px"
	 viewBox="0 0 86.4 364.2" style="enable-background:new 0 0 86.4 364.2;" xml:space="preserve">
<style type="text/css">
	.st0{fill:#D3D4D0;}
</style>
<path class="st0" d="M-186.8,273.2h364.2v-86.4h-364.2V273.2z M129.6,209.9c0.8-0.5,1.8-0.7,2.9-0.5c1.9,0.3,3.4,1.8,3.7,3.7
	c0.2,1.1,0,2.1-0.5,2.9c-1.3,2.4-2.1,5-2.1,7.7v12.7c0,2.7,0.8,5.3,2.1,7.7c0.5,0.8,0.7,1.8,0.5,2.9c-0.3,1.9-1.8,3.4-3.7,3.7
	c-1.1,0.2-2.1,0-2.9-0.5c-2.4-1.3-5-2.1-7.7-2.1H86.7h-3.6H39.9h-3.6H1.2c-2.7,0-5.3,0.8-7.7,2.1c-0.8,0.5-1.8,0.7-2.9,0.5
	c-1.9-0.3-3.4-1.8-3.7-3.7c-0.2-1.1,0-2.1,0.5-2.9c1.3-2.4,2.1-5,2.1-7.7v-12.7c0-2.7-0.8-5.3-2.1-7.7c-0.5-0.8-0.7-1.8-0.5-2.9
	c0.3-1.9,1.8-3.4,3.7-3.7c1.1-0.2,2.1,0,2.9,0.5c2.4,1.3,5,2.1,7.7,2.1h35.1h3.6h43.2h3.6h35.1C124.6,212,127.2,211.2,129.6,209.9z"
	/>
</svg>
